<svg width="52" height="48" viewBox="0 0 52 48" fill="none" xmlns="http://www.w3.org/2000/svg">
<path fill-rule="evenodd" clip-rule="evenodd" d="M45.2 16C47.5467 16 49.4667 17.8 49.4667 20L49.4453 20.16L49.4667 20.18V24C49.4667 24.52 49.36 25 49.168 25.46L42.7253 39.56C42.0853 41 40.5707 42 38.8 42H19.6C17.2533 42 15.3333 40.2 15.3333 38V18C15.3333 16.9 15.8027 15.9 16.592 15.18L30.6293 2L32.8907 4.1C33.4667 4.64 33.8293 5.4 33.8293 6.22L33.7653 6.86L31.7387 16H45.2ZM11.0667 42H2.53333V18H11.0667V42Z" fill="#95A1BB"/>
</svg>
