<svg width="48" height="49" viewBox="0 0 48 49" fill="none" xmlns="http://www.w3.org/2000/svg">
<path d="M24 0.611816C10.7456 0.611816 0 11.3574 0 24.6118C0 37.8662 10.7456 48.6118 24 48.6118C37.2544 48.6118 48 37.8662 48 24.6118C48 11.3574 37.2544 0.611816 24 0.611816ZM37.7925 17.5374C37.8066 17.8421 37.8131 18.1496 37.8131 18.4581C37.8131 27.8621 30.6553 38.7062 17.565 38.7062C13.5459 38.7062 9.80531 37.5278 6.65625 35.5084C7.21313 35.574 7.77938 35.6078 8.35406 35.6078C11.6888 35.6078 14.7563 34.4696 17.1928 32.5609C14.0784 32.5037 11.4506 30.4459 10.545 27.6184C10.98 27.7009 11.4253 27.7459 11.8837 27.7459C12.5325 27.7459 13.1616 27.6587 13.7587 27.4965C10.5028 26.8421 8.05031 23.9659 8.05031 20.5187C8.05031 20.4887 8.05031 20.4587 8.05125 20.4287C9.01031 20.9621 10.1081 21.2818 11.2744 21.3184C9.36469 20.0424 8.10844 17.8637 8.10844 15.3953C8.10844 14.0912 8.45906 12.8687 9.07219 11.8178C12.5822 16.1237 17.8256 18.9568 23.7403 19.2531C23.6194 18.7318 23.5566 18.189 23.5566 17.6312C23.5566 13.7012 26.7431 10.5146 30.6731 10.5146C32.7197 10.5146 34.5694 11.379 35.8678 12.7618C37.4888 12.4431 39.0122 11.8506 40.3875 11.0349C39.8559 12.6971 38.7272 14.0912 37.2581 14.9724C38.6972 14.8009 40.0687 14.4174 41.3456 13.8521C40.3894 15.2809 39.1828 16.5343 37.7925 17.5374Z" fill="#0D2155"/>
</svg>
