<svg width="48" height="49" viewBox="0 0 48 49" fill="none" xmlns="http://www.w3.org/2000/svg">
<path d="M0 24.6118C0 11.3531 10.7413 0.611816 24 0.611816C37.2587 0.611816 48 11.3531 48 24.6118C48 37.8706 37.2587 48.6118 24 48.6118C10.7413 48.5838 0 37.8426 0 24.6118Z" fill="#0D2155"/>
<path d="M34.7972 14.8496C32.7552 13.9266 30.6293 13.2552 28.4196 12.8916C28.1398 13.3951 27.8321 14.0385 27.6084 14.5699C25.2587 14.2063 22.8811 14.2063 20.5314 14.5699C20.2797 13.9825 20 13.4231 19.6923 12.8916C17.4825 13.2552 15.3286 13.9266 13.3147 14.8776C9.28668 20.8916 8.19577 26.7378 8.72724 32.528C11.1049 34.2902 13.7342 35.6329 16.5594 36.472C17.2028 35.6049 17.7622 34.7098 18.2377 33.7587C17.3147 33.4231 16.4475 33.0035 15.6084 32.5C15.8321 32.3322 16.0279 32.1643 16.2517 31.9965C21.2028 34.3461 26.965 34.3461 31.9161 31.9965C32.1398 32.1643 32.3356 32.3322 32.5594 32.5C31.7202 33.0035 30.8251 33.4231 29.9021 33.7587C30.3776 34.7098 30.937 35.6049 31.5804 36.472C34.4056 35.6049 37.0629 34.2902 39.4126 32.528C40.0279 25.8147 38.2937 19.9965 34.7972 14.8496ZM18.9091 28.9475C17.3706 28.9475 16.1398 27.5489 16.1398 25.8427C16.1398 24.1364 17.3706 22.7098 18.9091 22.7098C20.4755 22.7098 21.7063 24.1084 21.7063 25.8427C21.6783 27.5489 20.4755 28.9475 18.9091 28.9475ZM29.2028 28.9475C27.6643 28.9475 26.4335 27.5489 26.4335 25.8427C26.4335 24.1364 27.6643 22.7098 29.2028 22.7098C30.7692 22.7098 32 24.1084 31.972 25.8427C31.944 27.5769 30.7412 28.9475 29.2028 28.9475Z" fill="white"/>
</svg>
