<svg width="48" height="48" viewBox="0 0 48 48" fill="none" xmlns="http://www.w3.org/2000/svg">
<path d="M24 0.611816C10.7397 0.611816 0 11.3515 0 24.6118C0 35.8909 7.73924 45.2519 18.1808 47.8908C18.0604 47.5904 18.0012 47.1697 18.0012 46.751V42.67H15.0005C13.3808 42.67 11.8794 41.9509 11.2198 40.6295C10.4396 39.1894 10.3191 36.9692 8.33986 35.5885C7.73924 35.1086 8.21942 34.6286 8.87903 34.6878C10.1393 35.0474 11.1586 35.8889 12.1185 37.1471C13.0785 38.4073 13.4992 38.7076 15.2988 38.7076C16.1383 38.7076 17.4577 38.6484 18.6588 38.4665C19.3186 36.7855 20.4582 35.2862 21.8391 34.5672C13.7995 33.6072 9.95961 29.6467 9.95961 24.2462C9.95961 21.9054 10.9787 19.6853 12.6599 17.7652C12.1208 15.9044 11.3997 12.0645 12.901 10.5651C16.5021 10.5651 18.661 12.906 19.2002 13.5043C20.9996 12.9037 22.9809 12.5444 25.0194 12.5444C27.1191 12.5444 29.0391 12.9039 30.8385 13.5043C31.3777 12.9037 33.5389 10.5651 37.1377 10.5651C38.5778 12.0053 37.9179 15.9044 37.3173 17.7652C38.9983 19.6261 39.9584 21.9054 39.9584 24.2462C39.9584 29.6467 36.1777 33.6072 28.1994 34.4467C30.4196 35.5865 31.9801 38.826 31.9801 41.226V46.692C31.9801 46.8716 31.9209 47.0515 31.9209 47.2312C41.2799 43.9916 48 35.1126 48 24.6118C48 11.3515 37.2603 0.611816 24 0.611816Z" fill="#0D2155"/>
</svg>
